<svg width="18" height="15" fill="none" xmlns="http://www.w3.org/2000/svg"><path d="M16.183 4.037c.012.152.012.303.012.455 0 4.605-3.507 9.912-9.914 9.912a9.852 9.852 0 0 1-5.35-1.565c.28.032.55.043.841.043a6.98 6.98 0 0 0 4.325-1.489A3.489 3.489 0 0 1 2.84 8.976c.215.032.431.054.656.054.314 0 .627-.042.918-.117a3.485 3.485 0 0 1-2.794-3.42V5.45c.464.258 1.003.42 1.575.442a3.483 3.483 0 0 1-1.078-4.66 9.897 9.897 0 0 0 7.184 3.646 3.865 3.865 0 0 1-.087-.798A3.483 3.483 0 0 1 12.698.596c1.003 0 1.91.42 2.546 1.1a6.874 6.874 0 0 0 2.212-.84 3.467 3.467 0 0 1-1.532 1.919 6.958 6.958 0 0 0 2.006-.54 7.512 7.512 0 0 1-1.747 1.802Z" fill="#fff"/></svg>